mtllib post.mtl
g cursor
v 0.000000 0.000000 0.000000
v -0.450000 0.779423 0.000000
v 0.450000 0.779423 0.000000
v 0.900000 -0.000000 0.000000
v 0.450000 -0.779423 0.000000
v -0.450000 -0.779423 0.000000
v -0.900000 -0.000000 0.000000
vt 0.5014 0.5000
vt 0.5014 0.0001
vt 0.9343 0.2500
vt 0.0684 0.2500
vt 0.0684 0.7500
vt 0.5014 0.9999
vt 0.9343 0.7500
vn 0.0000 0.0000 1.0000

s off
f 1/1/1 3/2/1 2/3/1
f 1/1/1 4/4/1 3/2/1
f 1/1/1 5/5/1 4/4/1
f 1/1/1 6/6/1 5/5/1
f 1/1/1 7/7/1 6/6/1
f 1/1/1 2/3/1 7/7/1
