# Blender v2.78 (sub 0) OBJ File: 'pine.blend'
# www.blender.org
#g Cylinder.004_Cylinder.003
g all
v -0.293137 0.000609 -0.906231
v 0.047032 0.038173 0.994733
v -0.157850 0.234933 -0.906231
v 0.061846 0.056937 0.989905
v 0.112725 0.234933 -0.906231
v 0.085488 0.053186 0.985348
v 0.248012 0.000609 -0.906231
v 0.094315 0.030672 0.985618
v 0.112725 -0.233716 -0.906231
v 0.079501 0.011908 0.990445
v -0.157850 -0.233716 -0.906231
v 0.055859 0.015658 0.995003
v -0.165223 0.000609 -0.033173
v -0.093893 0.124156 -0.033173
v 0.048768 0.124156 -0.033173
v 0.120098 0.000609 -0.033173
v 0.048768 -0.122939 -0.033173
v -0.093893 -0.122939 -0.033173
vn -0.8423 0.5152 0.1586
vn 0.0243 0.9976 0.0652
vn 0.8766 0.4811 0.0050
vn 0.8554 -0.5164 0.0396
vn 0.2024 0.0911 0.9751
vn -0.0187 -0.9908 0.1337
vn -0.8605 -0.4719 0.1919
vn 0.0000 0.0000 -1.0000
vn -0.8591 -0.4960 0.1259
vn 0.0000 -0.9920 0.1259
vn 0.8591 -0.4960 0.1259
vn 0.8591 0.4960 0.1259
vn 0.0000 0.9920 0.1259
vn -0.8591 0.4960 0.1259
s off
f 13//1 2//1 4//1 14//1
f 14//2 4//2 6//2 15//2
f 15//3 6//3 8//3 16//3
f 16//4 8//4 10//4 17//4
f 4//5 2//5 12//5 10//5 8//5 6//5
f 17//6 10//6 12//6 18//6
f 18//7 12//7 2//7 13//7
f 1//8 3//8 5//8 7//8 9//8 11//8
f 11//9 18//9 13//9 1//9
f 9//10 17//10 18//10 11//10
f 7//11 16//11 17//11 9//11
f 5//12 15//12 16//12 7//12
f 3//13 14//13 15//13 5//13
f 1//14 13//14 14//14 3//14
#g Cylinder.003_Cylinder.002
v 0.089449 0.053155 1.063548
v 0.025195 0.368093 0.742846
v -0.211427 0.162670 0.866610
v -0.203465 -0.142011 0.899815
v 0.071494 -0.281760 0.861953
v 0.300931 -0.145188 0.864418
v 0.310374 0.168444 0.757638
v 0.358425 -0.124640 0.798553
v 0.107822 0.315122 0.819770
vn -0.2164 0.6745 0.7058
vn -0.5258 0.0786 0.8470
vn -0.1395 -0.5052 0.8517
vn 0.2917 -0.5047 0.8125
vn 0.7532 0.2105 0.6233
vn 0.5766 0.5345 0.6179
s off
f 19//15 20//15 21//15
f 19//16 21//16 22//16
f 19//17 22//17 23//17
f 19//18 23//18 24//18
f 19//19 26//19 25//19
f 19//20 25//20 27//20
#g Cylinder.002_Cylinder.001
v 0.036420 0.031817 0.823999
v -0.029098 -0.702830 0.391444
v 0.480900 -0.325682 0.404800
v 0.513310 0.243214 0.311853
v 0.009238 0.539709 0.290761
v -0.421504 0.344720 0.461889
v -0.520971 -0.270961 0.437066
v -0.559154 0.289479 0.380618
v -0.138114 -0.552507 0.535194
vn 0.3479 -0.4985 0.7940
vn 0.7147 0.0729 0.6956
vn 0.3742 0.6810 0.6295
vn -0.0525 0.7218 0.6901
vn -0.5850 0.0417 0.8100
vn -0.4333 -0.2920 0.8526
s off
f 28//21 29//21 30//21
f 28//22 30//22 31//22
f 28//23 31//23 32//23
f 28//24 32//24 33//24
f 28//25 35//25 34//25
f 28//26 34//26 36//26
#g Cylinder.001_Cylinder
v 0.000000 0.000000 0.360537
v -0.929772 -0.023826 -0.327365
v -0.387002 -0.675864 -0.196842
v 0.392909 -0.680538 -0.240043
v 0.756573 0.021056 -0.288429
v 0.437988 0.602843 -0.137275
v -0.392909 0.680538 -0.266394
v 0.365147 0.774192 -0.270287
v -0.756573 0.151942 -0.127241
vn -0.5598 -0.3124 0.7675
vn 0.0382 -0.6487 0.7601
vn 0.6301 -0.2766 0.7256
vn 0.6407 0.1555 0.7519
vn -0.0766 0.6513 0.7550
vn -0.4041 0.4826 0.7771
s off
f 37//27 38//27 39//27
f 37//28 39//28 40//28
f 37//29 40//29 41//29
f 37//30 41//30 42//30
f 37//31 44//31 43//31
f 37//32 43//32 45//32
