# Blender v2.79 (sub 0) OBJ File: 'pine.blend'
# www.blender.org
mtllib pine.mtl
g trunk
v 0.000609 -0.000041 -0.293137
v 0.038173 1.900922 0.047032
v 0.234933 -0.000041 -0.157850
v 0.056937 1.896094 0.061846
v 0.234933 -0.000041 0.112725
v 0.053186 1.891537 0.085488
v 0.000609 -0.000041 0.248012
v 0.030672 1.891807 0.094315
v -0.233716 -0.000041 0.112725
v 0.011908 1.896635 0.079501
v -0.233716 -0.000041 -0.157850
v 0.015658 1.901192 0.055859
v 0.000609 0.873016 -0.165223
v 0.124156 0.873016 -0.093893
v 0.124156 0.873016 0.048768
v 0.000609 0.873016 0.120098
v -0.122939 0.873016 0.048768
v -0.122939 0.873016 -0.093893
vn 0.5152 0.1586 -0.8423
vn 0.9976 0.0652 0.0243
vn 0.4811 0.0050 0.8766
vn -0.5164 0.0396 0.8554
vn 0.0911 0.9751 0.2024
vn -0.9908 0.1337 -0.0187
vn -0.4719 0.1919 -0.8605
vn 0.0000 -1.0000 0.0000
vn -0.4960 0.1259 -0.8591
vn -0.9920 0.1259 0.0000
vn -0.4960 0.1259 0.8591
vn 0.4960 0.1259 0.8591
vn 0.9920 0.1259 0.0000
vn 0.4960 0.1259 -0.8591
usemtl Material.001
s off
f 13//1 2//1 4//1 14//1
f 14//2 4//2 6//2 15//2
f 15//3 6//3 8//3 16//3
f 16//4 8//4 10//4 17//4
f 4//5 2//5 12//5 10//5 8//5 6//5
f 17//6 10//6 12//6 18//6
f 18//7 12//7 2//7 13//7
f 1//8 3//8 5//8 7//8 9//8 11//8
f 11//9 18//9 13//9 1//9
f 9//10 17//10 18//10 11//10
f 7//11 16//11 17//11 9//11
f 5//12 15//12 16//12 7//12
f 3//13 14//13 15//13 5//13
f 1//14 13//14 14//14 3//14
g canopy
v 0.053155 1.969737 0.089449
v 0.368093 1.649035 0.025195
v 0.162670 1.772800 -0.211427
v -0.142011 1.806004 -0.203465
v -0.281760 1.768143 0.071494
v -0.145188 1.770608 0.300931
v 0.168444 1.663828 0.310374
v -0.124640 1.704742 0.358425
v 0.315122 1.725960 0.107822
vn 0.6745 0.7058 -0.2164
vn 0.0786 0.8470 -0.5258
vn -0.5052 0.8517 -0.1395
vn -0.5047 0.8125 0.2917
vn 0.2105 0.6233 0.7532
vn 0.5345 0.6179 0.5766
usemtl green
s off
f 19//15 20//15 21//15
f 19//16 21//16 22//16
f 19//17 22//17 23//17
f 19//18 23//18 24//18
f 19//19 26//19 25//19
f 19//20 25//20 27//20
#g Cylinder.002_Cylinder.001
v 0.031817 1.730188 0.036420
v -0.702830 1.297633 -0.029098
v -0.325682 1.310990 0.480900
v 0.243214 1.218043 0.513310
v 0.539709 1.196951 0.009238
v 0.344720 1.368079 -0.421504
v -0.270961 1.343256 -0.520971
v 0.289479 1.286808 -0.559154
v -0.552507 1.441383 -0.138114
vn -0.4985 0.7940 0.3479
vn 0.0729 0.6956 0.7147
vn 0.6810 0.6295 0.3742
vn 0.7218 0.6901 -0.0525
vn 0.0417 0.8100 -0.5850
vn -0.2920 0.8526 -0.4333
usemtl green
s off
f 28//21 29//21 30//21
f 28//22 30//22 31//22
f 28//23 31//23 32//23
f 28//24 32//24 33//24
f 28//25 35//25 34//25
f 28//26 34//26 36//26
#g Cylinder.001_Cylinder
v 0.000000 1.266726 0.000000
v -0.023826 0.578825 -0.929772
v -0.675864 0.709347 -0.387002
v -0.680538 0.666147 0.392909
v 0.021056 0.617761 0.756573
v 0.602843 0.768914 0.437988
v 0.680538 0.639796 -0.392909
v 0.774192 0.635902 0.365147
v 0.151942 0.778948 -0.756573
vn -0.3124 0.7675 -0.5598
vn -0.6487 0.7601 0.0382
vn -0.2766 0.7256 0.6301
vn 0.1555 0.7519 0.6407
vn 0.6513 0.7550 -0.0766
vn 0.4826 0.7771 -0.4041
usemtl green
s off
f 37//27 38//27 39//27
f 37//28 39//28 40//28
f 37//29 40//29 41//29
f 37//30 41//30 42//30
f 37//31 44//31 43//31
f 37//32 43//32 45//32
