# Blender v2.77 (sub 0) OBJ File: 'post.blend'
# www.blender.org
mtllib post.mtl
g hex_top
v -0.000000 -0.000000 0.000000
v -0.450000 0.779423 0.000000
v 0.450000 0.779423 0.000000
v 0.900000 -0.000000 0.000000
v 0.450000 -0.779423 0.000000
v -0.450000 -0.779423 0.000000
v -0.900000 -0.000000 0.000000
vt 0.5014 0.5000
vt 0.5014 0.0001
vt 0.9343 0.2500
vt 0.0684 0.2500
vt 0.0684 0.7500
vt 0.5014 0.9999
vt 0.9343 0.7500
vn 0.0000 0.0000 1.0000
usemtl None
s off
f 1/1/1 3/2/1 2/3/1
f 1/1/1 4/4/1 3/2/1
f 1/1/1 5/5/1 4/4/1
f 1/1/1 6/6/1 5/5/1
f 1/1/1 7/7/1 6/6/1
f 1/1/1 2/3/1 7/7/1
g side
v -0.500000 0.866025 -8.000000
v -0.450000 0.779423 0.000000
v 0.500000 0.866025 -8.000000
v 0.450000 0.779423 0.000000
v 1.000000 0.000000 -8.000000
v 0.900000 0.000000 0.000000
v 0.500000 -0.866025 -8.000000
v 0.450000 -0.779423 0.000000
v -0.500000 -0.866025 -8.000000
v -0.450000 -0.779423 0.000000
v -1.000000 -0.000000 -8.000000
v -0.900000 -0.000000 0.000000
vt 0.5001 -1.6586
vt 0.5001 3.3379
vt -0.1622 3.3379
vt -0.1622 -1.6586
vt -0.8245 3.3379
vt -0.8245 -1.6586
vt -1.4869 3.3379
vt -1.4869 -1.6586
vt 2.4870 -1.6586
vt 2.4870 3.3379
vt 1.8247 3.3379
vt 1.8247 -1.6586
vt 1.1624 3.3379
vt 1.1624 -1.6586
vn -0.0000 0.9999 0.0108
vn 0.8660 0.5000 0.0108
vn 0.8660 -0.5000 0.0108
vn 0.0000 -0.9999 0.0108
vn -0.8660 -0.5000 0.0108
vn -0.8660 0.5000 0.0108
usemtl None
s off
f 8/8/2 9/9/2 11/10/2 10/11/2
f 10/11/3 11/10/3 13/12/3 12/13/3
f 12/13/4 13/12/4 15/14/4 14/15/4
f 14/16/5 15/17/5 17/18/5 16/19/5
f 16/19/6 17/18/6 19/20/6 18/21/6
f 18/21/7 19/20/7 9/9/7 8/8/7
